<svg width="48" height="48" viewBox="0 0 48 48" fill="none" xmlns="http://www.w3.org/2000/svg">
<path d="M42.4024 0H5.59386C4.11148 0.00494949 2.69126 0.596148 1.64322 1.64453C0.595188 2.69292 0.0044523 4.11335 0 5.59573V42.4043C0.00445484 43.887 0.595425 45.3077 1.64386 46.3561C2.6923 47.4046 4.11303 47.9955 5.59574 48H42.4043C43.887 47.9955 45.3077 47.4046 46.3561 46.3561C47.4045 45.3077 47.9955 43.887 48 42.4043V5.59573C47.9955 4.1127 47.4043 2.69171 46.3555 1.64322C45.3066 0.594724 43.8854 0.00395998 42.4024 0V0Z" fill="black"/>
<path d="M10 41C11.6569 41 13 39.6569 13 38C13 36.3431 11.6569 35 10 35C8.34315 35 7 36.3431 7 38C7 39.6569 8.34315 41 10 41Z" fill="#00D639"/>
<path d="M25.0659 24C25.0659 25.5754 24.5919 26.0559 23.8505 26.0559C23.1212 26.0559 22.6593 25.5754 22.6472 24C22.6593 22.4246 23.109 21.9441 23.8505 21.9441C24.5919 21.9441 25.0659 22.4246 25.0659 24Z" fill="white"/>
<path d="M33.2084 24C33.2084 25.5754 32.7343 26.0559 31.9929 26.0559C31.2637 26.0559 30.8018 25.5754 30.7896 24C30.8018 22.4246 31.2515 21.9441 31.9929 21.9441C32.7343 21.9441 33.2084 22.4246 33.2084 24Z" fill="white"/>
<path fill-rule="evenodd" clip-rule="evenodd" d="M24 38C31.732 38 38 31.732 38 24C38 16.268 31.732 10 24 10C16.268 10 10 16.268 10 24C10 31.732 16.268 38 24 38ZM23.8505 28C21.7964 28 20.1555 26.838 20.1555 24C20.1555 21.162 21.7964 20 23.8505 20C25.9289 20 27.5454 21.162 27.5575 24C27.5454 26.838 25.9289 28 23.8505 28ZM19.3159 27.8994H13.2387C13.0929 27.8994 13.0078 27.8101 13.0078 27.676V26.2682C13.0078 26.2123 13.0321 26.1453 13.105 26.0894L15.7425 23.9553C16.642 23.1955 16.8729 22.9162 16.8729 22.5587C16.8729 22.1899 16.5204 21.9553 16.1072 21.9553C15.6088 21.9553 15.1956 22.2793 14.6851 22.8268C14.5636 22.9385 14.4663 22.9609 14.3448 22.8939L12.8255 22.067C12.6918 22 12.6675 21.8771 12.7404 21.7542C13.4818 20.771 14.6 20.0112 16.3381 20.0112C18.1856 20.0112 19.4982 21.0615 19.4982 22.3575C19.4982 23.3184 18.9513 23.9888 17.6629 25.0168L16.3624 26.0559H19.3159C19.4132 26.0559 19.4861 26.1117 19.4861 26.2011V27.7318C19.4861 27.8101 19.4132 27.8994 19.3159 27.8994ZM31.9929 28C29.9388 28 28.298 26.838 28.298 24C28.298 21.162 29.9388 20 31.9929 20C34.0713 20 35.6879 21.162 35.7 24C35.6879 26.838 34.0713 28 31.9929 28Z" fill="white"/>
</svg>
