<svg width="60" height="60" viewBox="0 0 60 60" fill="none" xmlns="http://www.w3.org/2000/svg">
<path d="M52 60H16C14.9 60 14 59.1 14 58C14 56.9 14.9 56 16 56H52C54.2 56 56 54.2 56 52V8C56 5.8 54.2 4 52 4H8C5.8 4 4 5.8 4 8V52C4 54.2 5.8 56 8 56C9.1 56 10 56.9 10 58C10 59.1 9.1 60 8 60C3.6 60 0 56.4 0 52V8C0 3.6 3.6 0 8 0H52C56.4 0 60 3.6 60 8V52C60 56.4 56.4 60 52 60ZM44 48H16C13.8 48 12 46.2 12 44V16C12 13.8 13.8 12 16 12H38C39.1 12 40 12.9 40 14C40 15.1 39.1 16 38 16H16V44H44V26C44 24.9 44.9 24 46 24C47.1 24 48 24.9 48 26V44C48 46.2 46.2 48 44 48ZM28 40C27.5 40 27 39.8 26.6 39.4L20.6 33.4C19.8 32.6 19.8 31.4 20.6 30.6C21.4 29.8 22.6 29.8 23.4 30.6L27.8 35L44.4 12.8C45.1 11.9 46.3 11.7 47.2 12.4C48.1 13.1 48.3 14.3 47.6 15.2L29.6 39.2C29.3 39.7 28.7 40 28.1 40H28Z" fill="#00A159"/>
</svg>
